<?xml version="1.0" encoding="utf-8"?>
<svg version="1.1" id="Ebene_1" xmlns="http://www.w3.org/2000/svg" xmlns:xlink="http://www.w3.org/1999/xlink" x="0px" y="0px"
	 width="286.3px" height="171.8px" viewBox="0 0 286.3 171.8" enable-background="new 0 0 286.3 171.8" xml:space="preserve">
<g>
	<g>
		<g>
			<g id="Background_31_">
				<path fill="#616263" d="M219.3,25.6H167h-18.6h-3.1h-3.1h-18.6H71.2c-2.9,0-5.2,2.1-5.2,5.2v118.5c0,3.4,2,5.3,5.2,5.3h52.3
					h18.6h3.1h3.1H167h52.3c3.3,0,5.2-1.8,5.2-5.3V30.9C224.6,27.8,222.2,25.6,219.3,25.6z"/>
				<path fill="#333333" d="M219.3,155H71.2c-3.6,0-5.7-2.1-5.7-5.7V30.9c0-3.2,2.4-5.7,5.7-5.7h148.1c3.2,0,5.7,2.4,5.7,5.7v118.5
					C225,152.9,222.9,155,219.3,155z M71.2,26.1c-2.8,0-4.8,2-4.8,4.8v118.5c0,3.1,1.7,4.8,4.8,4.8h148.1c3.1,0,4.8-1.7,4.8-4.8
					V30.9c0-2.8-2-4.8-4.8-4.8H71.2z"/>
			</g>
			<g id="Label_3_">
				<path fill="#FC6169" d="M65.4,134.6h1.7v-29.9h-1.7V134.6z M223.4,104.7v29.9h1.7v-29.9H223.4z"/>
				<path fill="#333333" d="M225.5,135h-2.6v-30.8h2.6V135z M223.8,134.1h0.9v-29h-0.9V134.1z M67.6,135H65v-30.8h2.6V135z
					 M65.9,134.1h0.9v-29h-0.9V134.1z"/>
			</g>
			<g id="Paper_1_">
				<g>
					<path fill="#FFFFFF" d="M73.1,153.1c-3.4,0-5.5-2-5.5-5.5V32.6c0-3.1,2.4-5.5,5.5-5.5h144.5c3.1,0,5.5,2.4,5.5,5.5v115.1
						c0,3.4-2,5.5-5.5,5.5H73.1z"/>
				</g>
				<g>
					<path fill="#333333" d="M217.6,27.5c2.8,0,5,2.1,5,5v115.1c0,3.3-1.9,5-5,5h-51.4h-17.9h-2.9h0h-2.9h-17.9H73.1
						c-3.1,0-5-1.8-5-5V32.6c0-3,2.2-5,5-5h51.4h41.7H217.6 M217.6,26.7h-51.4h-41.7H73.1c-3.4,0-5.9,2.5-5.9,5.9v115.1
						c0,1.8,0.6,3.3,1.6,4.4c1,1,2.5,1.5,4.3,1.5h51.4h17.9h2.9h0h2.9h17.9h51.4c1.8,0,3.3-0.5,4.3-1.5c1.1-1,1.6-2.5,1.6-4.4V32.6
						C223.6,29.2,221,26.7,217.6,26.7L217.6,26.7z"/>
				</g>
			</g>
			<g id="Lines_1_">
				<g id="Line_28_">
					<rect x="68.1" y="33.8" fill="#E2E2E2" width="154.6" height="0.4"/>
				</g>
				<g id="Line_29_">
					<rect x="68.1" y="40.3" fill="#E2E2E2" width="154.6" height="0.4"/>
				</g>
				<g id="Line_27_">
					<rect x="68.1" y="46.8" fill="#E2E2E2" width="154.6" height="0.4"/>
				</g>
				<g id="Line_26_">
					<rect x="68.1" y="53.3" fill="#E2E2E2" width="154.6" height="0.4"/>
				</g>
				<g id="Line_25_">
					<rect x="68.1" y="59.8" fill="#E2E2E2" width="154.6" height="0.4"/>
				</g>
				<g id="Line_24_">
					<rect x="68.1" y="66.4" fill="#E2E2E2" width="154.6" height="0.4"/>
				</g>
				<g id="Line_23_">
					<rect x="68.1" y="72.9" fill="#E2E2E2" width="154.6" height="0.4"/>
				</g>
				<g id="Line_22_">
					<rect x="68.1" y="79.4" fill="#E2E2E2" width="154.6" height="0.4"/>
				</g>
				<g id="Line_21_">
					<rect x="68.1" y="85.9" fill="#E2E2E2" width="154.6" height="0.4"/>
				</g>
				<g id="Line_20_">
					<rect x="68.1" y="92.4" fill="#E2E2E2" width="154.6" height="0.4"/>
				</g>
				<g id="Line_19_">
					<rect x="68.1" y="98.9" fill="#E2E2E2" width="154.6" height="0.4"/>
				</g>
				<g id="Line_18_">
					<rect x="68.1" y="105.5" fill="#E2E2E2" width="154.6" height="0.4"/>
				</g>
				<g id="Line_17_">
					<rect x="68.1" y="112" fill="#E2E2E2" width="154.6" height="0.4"/>
				</g>
				<g id="Line_16_">
					<rect x="68.1" y="118.5" fill="#E2E2E2" width="154.6" height="0.4"/>
				</g>
				<g id="Line_15_">
					<rect x="68.1" y="125" fill="#E2E2E2" width="154.6" height="0.4"/>
				</g>
				<g id="Line_14_">
					<rect x="68.1" y="131.5" fill="#E2E2E2" width="154.6" height="0.4"/>
				</g>
				<g id="Line_13_">
					<rect x="68.1" y="138" fill="#E2E2E2" width="154.6" height="0.4"/>
				</g>
				<g id="Line_12_">
					<rect x="68.1" y="144.5" fill="#E2E2E2" width="154.6" height="0.4"/>
				</g>
			</g>
			<g id="Border_Shadow_1_">
				<rect x="144.3" y="27.5" fill="#E2E2E2" width="2.2" height="125.2"/>
			</g>
			<g id="Border_24_">
				<line fill="#FEF7CE" x1="145.4" y1="27.5" x2="145.4" y2="152.7"/>
				<rect x="145" y="27.5" fill="#333333" width="0.9" height="125.2"/>
			</g>
			<g id="Lash_4_">
				<g>
					<path fill="#333333" d="M214.6,155c-0.1,0-0.2-0.1-0.4-0.2h0.2V25.4H214c0.2-0.3,0.5-0.5,0.6-0.6h2.4c0.1,0,0.2,0.1,0.2,0.2
						v129.9c0,0.1-0.1,0.2-0.2,0.2H214.6z"/>
				</g>
				<g>
					<path fill="#111111" d="M216.8,25.2v129.4h-2v-0.2V25.8v-0.6H216.8 M217.1,24.4h-2.5c-0.3,0-1.1,1-1.5,1.5h0.9v128.5h-0.9
						c0.4,0.5,1.1,1.1,1.5,1.1h2.5c0.3,0,0.6-0.3,0.6-0.6V25C217.7,24.6,217.4,24.4,217.1,24.4L217.1,24.4z"/>
				</g>
			</g>
			<g id="Marker_3_">
				<g>
					<polygon fill="#FC6169" points="135.7,26.5 139.8,26.5 139.8,157.1 137.7,156 135.7,157.1 					"/>
				</g>
				<g>
					<path fill="#333333" d="M139.3,26.9v129.5l-1.6-0.9l-1.6,0.9V26.9H139.3 M140.2,26h-0.9h-3.2h-0.9v0.9v129.5v1.5l1.3-0.7
						l1.2-0.7l1.2,0.7l1.3,0.7v-1.5V26.9V26L140.2,26z"/>
				</g>
			</g>
		</g>
		<g>
			<g>
				<g id="Rubber_3_">
					<g>
						<path fill="#BB4D67" d="M95.7,16.8c-0.2-0.2-0.8-0.9-0.8-2c0-1.2,0.6-1.8,0.8-2l83.1-0.5l4.9,1.9l-4.9,2.1L95.7,16.8z"/>
					</g>
					<g>
						<path fill="#333333" d="M178.7,12.7l3.9,1.5l-3.8,1.6l-82.8,0.5c-0.2-0.3-0.6-0.8-0.6-1.5c0-0.9,0.3-1.3,0.5-1.6L178.7,12.7
							 M178.8,11.8l-83.3,0.5c0,0-1.1,0.7-1.1,2.4c0,1.6,1.1,2.4,1.1,2.4l83.3-0.5l6-2.5L178.8,11.8L178.8,11.8z"/>
					</g>
				</g>
				<g id="Metal_2_">
					<g>
						<path fill="#E2E2E2" d="M99.8,16.8c-0.2-0.2-0.8-0.9-0.8-2c0-1.2,0.6-1.8,0.8-2l83.1-0.5l4.9,1.9l-4.9,2.1L99.8,16.8z"/>
					</g>
					<g>
						<path fill="#333333" d="M182.8,12.7l3.9,1.5l-3.8,1.6L100,16.3c-0.2-0.3-0.6-0.8-0.6-1.5c0-0.9,0.3-1.3,0.5-1.6L182.8,12.7
							 M182.9,11.8l-83.3,0.5c0,0-1.1,0.7-1.1,2.4c0,1.6,1.1,2.4,1.1,2.4l83.3-0.5l6-2.5L182.9,11.8L182.9,11.8z"/>
					</g>
				</g>
				<g id="border_58_">
					<path fill="#333333" d="M182.8,12.7l3.9,1.5l-3.8,1.6L100,16.3c-0.2-0.3-0.6-0.8-0.6-1.5c0-0.9,0.3-1.3,0.5-1.6L182.8,12.7
						 M182.9,11.8l-83.3,0.5c0,0-1.1,0.7-1.1,2.4c0,1.6,1.1,2.4,1.1,2.4l83.3-0.5l6-2.5L182.9,11.8L182.9,11.8z"/>
				</g>
				<g id="tip_wood_2_">
					<g>
						<polygon fill="#FEF7CE" points="104.8,15.4 104.8,14.1 105.7,12.8 188.7,12.2 193.7,14.1 188.7,16.2 105.7,16.7 						"/>
					</g>
					<g>
						<path fill="#333333" d="M188.6,12.6l3.9,1.5l-3.8,1.6L106,16.3l-0.7-1l0-1l0.7-1.1L188.6,12.6 M188.8,11.8l-83.3,0.5l-1.1,1.7
							l0,1.5l1.1,1.6l83.3-0.5l6-2.5L188.8,11.8L188.8,11.8z"/>
					</g>
				</g>
				<g id="wood_2_">
					<path fill="#FCC865" d="M105.5,12.3l83.3-0.5c0,0-0.2,0.8-0.4,1c-0.2,0.2-1.1,0.4-1.1,0.4s0.4,0.7,0.4,0.9
						c0,0.2-0.4,0.9-0.4,0.9s0.8,0.4,1,0.6c0.2,0.2,0.5,1,0.5,1l-83.3,0.5l-1.1-1.6l0-1.5L105.5,12.3z"/>
				</g>
				<g id="border_57_">
					<path fill="#333333" d="M188.6,12.6l3.9,1.5l-3.8,1.6L106,16.3l-0.7-1l0-1l0.7-1.1L188.6,12.6 M188.8,11.8l-83.3,0.5l-1.1,1.7
						l0,1.5l1.1,1.6l83.3-0.5l6-2.5L188.8,11.8L188.8,11.8z"/>
				</g>
				<g id="border_56_">
					<path fill="#333333" d="M188.7,16.5c-0.3-0.7-0.5-0.9-1.4-1.3l-0.3-0.1l0.2-0.2c0.4-0.6,0.4-0.9-0.1-1.6l-0.2-0.3l0.3-0.1
						c0.8-0.2,1.3-0.4,1.3-1l0.4,0c-0.1,0.9-0.8,1.2-1.4,1.3c0.4,0.6,0.4,1,0,1.6c0.8,0.3,1,0.6,1.4,1.4L188.7,16.5z"/>
				</g>
				<g id="tip_10_">
					<path fill="#333333" d="M194.8,14.1l-3.3-1.3c0,0-0.8,0.4-0.8,1.3c0,0.9,0.8,1.3,0.8,1.3L194.8,14.1z"/>
				</g>
				<g id="border_55_">
					<path fill="#333333" d="M104.8,15.8c-0.1,0-0.2-0.1-0.2-0.2c0-0.1,0.1-0.2,0.2-0.2l70.8-0.5c0,0,0,0,0,0c0.1,0,0.2,0.1,0.2,0.2
						c0,0.1-0.1,0.2-0.2,0.2L104.8,15.8C104.8,15.8,104.8,15.8,104.8,15.8z"/>
				</g>
				<g id="border_54_">
					<path fill="#333333" d="M104.8,14.3c-0.1,0-0.2-0.1-0.2-0.2c0-0.1,0.1-0.2,0.2-0.2l70.8-0.5h0c0.1,0,0.2,0.1,0.2,0.2
						c0,0.1-0.1,0.2-0.2,0.2L104.8,14.3L104.8,14.3z"/>
				</g>
			</g>
			<g id="Metal_Border_3_">
				<path fill="#616263" d="M101.3,17c0,0-0.8-1-0.8-2.2c0-1.2,0.7-2.1,0.8-2.2l0.3,0.3c0,0-0.7,0.8-0.7,1.9c0,1.1,0.7,1.9,0.7,1.9
					L101.3,17z"/>
			</g>
			<g id="Metal_Border_2_">
				<path fill="#616263" d="M102.1,17c0,0-0.8-1-0.8-2.2c0-1.2,0.7-2.1,0.8-2.2l0.3,0.3c0,0-0.7,0.8-0.7,1.9c0,1.1,0.7,1.9,0.7,1.9
					L102.1,17z"/>
			</g>
		</g>
		<g id="Front_5_">
			<g id="Background_61_">
				<g>
					<path fill-rule="evenodd" clip-rule="evenodd" fill="#E2E2E2" d="M19.3,155.1c-4.5,0-7.2-2.8-7.2-7.2V76.5
						c0-4.5,2.8-7.2,7.2-7.2h27.6c4.5,0,7.2,2.8,7.2,7.2v71.3c0,4.5-2.8,7.2-7.2,7.2H19.3z"/>
				</g>
				<g>
					<path fill="#333333" d="M46.9,69.7c4.2,0,6.8,2.6,6.8,6.8v71.3c0,4.2-2.6,6.8-6.8,6.8h-0.1H19.3c-4.2,0-6.8-2.6-6.8-6.8V76.5
						c0-4.2,2.6-6.8,6.8-6.8H46.9 M46.9,68.8H19.3c-4.7,0-7.7,2.9-7.7,7.7v71.3c0,2.3,0.7,4.2,2.1,5.6c1.4,1.4,3.3,2.1,5.6,2.1h27.4
						h0.1c2.3,0,4.3-0.7,5.6-2.1c1.4-1.4,2.1-3.3,2.1-5.6V76.5C54.6,71.8,51.7,68.8,46.9,68.8L46.9,68.8z"/>
				</g>
			</g>
			<g id="Light_55_">
				<g>
					<path fill-rule="evenodd" clip-rule="evenodd" fill="#F4F4F4" d="M46.1,70.6H20.2c-4.2,0-6.8,2.6-6.8,6.8V147
						c0,4.2,2.6,6.8,6.8,6.8h25.7h0.1c4.2,0,6.8-2.6,6.8-6.8V77.4C52.9,73.1,50.3,70.6,46.1,70.6z"/>
				</g>
			</g>
			<g id="Home_Button_5_">
				<path fill-rule="evenodd" clip-rule="evenodd" fill="#D6D6D6" d="M32.5,146.2c-1.8,0-3.3,1.5-3.3,3.3c0,1.8,1.5,3.3,3.3,3.3
					c1.8,0,3.3-1.5,3.3-3.3C35.8,147.7,34.3,146.2,32.5,146.2z M32.5,152.5c-1.7,0-3-1.3-3-3c0-1.7,1.3-3,3-3c1.7,0,3,1.3,3,3
					C35.5,151.2,34.2,152.5,32.5,152.5z"/>
			</g>
			<g id="Speaker_4_">
				<path fill-rule="evenodd" clip-rule="evenodd" fill="#333333" d="M30.1,75.1h5.8c0.2,0,0.4,0.2,0.4,0.4c0,0.2-0.2,0.4-0.4,0.4
					h-5.8c-0.2,0-0.4-0.2-0.4-0.4C29.8,75.3,29.9,75.1,30.1,75.1z"/>
			</g>
			<g id="Camera_10_">
				<path fill-rule="evenodd" clip-rule="evenodd" fill="#333333" d="M26.4,75c0.4,0,0.7,0.3,0.7,0.7c0,0.4-0.3,0.7-0.7,0.7
					c-0.4,0-0.7-0.3-0.7-0.7C25.7,75.3,26,75,26.4,75z"/>
			</g>
			<g id="Display_7_">
				<rect x="14.9" y="80.2" fill-rule="evenodd" clip-rule="evenodd" fill="#333333" width="36.5" height="64.6"/>
			</g>
			<g id="Light_54_" opacity="0.1">
				<path fill="#FFFFFF" d="M25.9,69.7L12.5,83v6.2l19.6-19.6H25.9z M46.9,69.7H33.5L12.5,90.6v21.4l39.9-39.9
					C51.3,70.6,49.4,69.7,46.9,69.7z"/>
			</g>
		</g>
	</g>
	<g>
		<circle fill="#FFFFFF" stroke="#333333" stroke-width="2" stroke-miterlimit="10" cx="254.3" cy="133.9" r="21.3"/>
		<polygon fill="#333333" points="251.3,146.2 251.3,121.6 263.6,133.9"/>
	</g>
</g>
</svg>
